# xmcd CD database file
# Copyright (C) 1993-1998 Ti Kan
#
# Track frame offsets:
#	150
#	3300
#	17817
#	30350
#	42520
#	48875
#	59657
#	68695
#	73567
#	83887
#	96415
#	104607
#	116950
#	138647
#	154332
#	162182
#	164882
#	172995
#	187892
#	196012
#	210365
#	225752
#	232852
#	238005
#	255025
#
# Disc length: 3596 seconds
#
# Revision: 4
# Processed by: cddbd v1.4b41PL1 Copyright (c) Steve Scherf et al.
# Submitted via: xmcd 2.2 PL0
#
DISCID=450e0a19
DTITLE=The Best of John, Pam and Gino #2
DYEAR=1900
DGENRE=
TTITLE0=Open
TTITLE1=Minnesota Redneck
TTITLE2=Road Contruction Crawl
TTITLE3=Hines on Leno
TTITLE4=Pam's Little "Problem"
TTITLE5=T-Wolves Tradition
TTITLE6=Cheers in Washington D.C.
TTITLE7=The Last Day On Earth
TTITLE8=Kick a Little Packer Tail
TTITLE9=Punch-Line News
TTITLE10=Diarrhea
TTITLE11=Ask a Question Day (with Porfessor Curious)
TTITLE12=Brave
TTITLE13=Girls Do It All The Time
TTITLE14=Pam Lewis, Ninja DJ
TTITLE15=John Lundell Shares a Dream
TTITLE16=Da Bears
TTITLE17=The Forplay Gourmet
TTITLE18=Pam and Mr. Lewis' Baby Song
TTITLE19=Using Celebrity Names
TTITLE20=Presential Debates
TTITLE21=Valentine Song
TTITLE22=Lady Di in Chicago
TTITLE23=Farewell Heros
TTITLE24=Any Elf on Mine - Supper Secret Holiday Bonus Track
EXTD=
EXTT0=
EXTT1=
EXTT2=
EXTT3=
EXTT4=
EXTT5=
EXTT6=
EXTT7=
EXTT8=
EXTT9=
EXTT10=
EXTT11=
EXTT12=
EXTT13=
EXTT14=
EXTT15=
EXTT16=
EXTT17=
EXTT18=
EXTT19=
EXTT20=
EXTT21=
EXTT22=
EXTT23=
EXTT24=
PLAYORDER=
